<svg id="Layer_1" data-name="Layer 1" xmlns="http://www.w3.org/2000/svg" viewBox="0 0 226.92 203.2"><defs><style>.cls-1{fill:#ff7b39;}</style></defs><path class="cls-1" d="M114.88,89.33c.09-.2.16-.37.24-.54a7.28,7.28,0,0,1,5.74-4.42,12.17,12.17,0,0,1,5.13.31,3.59,3.59,0,0,1,.35.12,1,1,0,0,1-.58,2c-.33-.06-.65-.16-1-.22a9,9,0,0,0-4.28,0A5.25,5.25,0,0,0,116.9,90s0,0,0,.1l.34.19a15.78,15.78,0,0,1,3.09,2.08,2.79,2.79,0,0,0,1.89.7l2.07.08a6.51,6.51,0,0,1,1.74.32,4.79,4.79,0,0,1,2.45,1.94,10.06,10.06,0,0,1,1.44,3.73,11.17,11.17,0,0,1-.33,5,27.3,27.3,0,0,1-1.86,4.71c-.66,1.36-1.34,2.71-2,4.08a16.75,16.75,0,0,0-.82,2,6.79,6.79,0,0,1-3,3.71,13.37,13.37,0,0,1-4.3,1.63,20.23,20.23,0,0,1-5.15.36,6.18,6.18,0,0,1-2.61-.78,7.59,7.59,0,0,1-1.67-1.14,1.38,1.38,0,0,0-.93-.37,11,11,0,0,1-5.12-1.52,10.48,10.48,0,0,1-4.46-5.44,14.78,14.78,0,0,1-.92-4.1,29.93,29.93,0,0,1,.35-7.44,38.8,38.8,0,0,1,1.51-6.28,17.42,17.42,0,0,1,2.24-4.56,8.76,8.76,0,0,1,2-2.08,6.4,6.4,0,0,1,5.56-.93A11.44,11.44,0,0,1,113,88.51a2.52,2.52,0,0,0,1.42.7A2.76,2.76,0,0,1,114.88,89.33Zm-4.29,28.57a5.1,5.1,0,0,0,2.54.73,17.92,17.92,0,0,0,4.44-.47A10.44,10.44,0,0,0,121,116.8a4.8,4.8,0,0,0,2-2.53c.28-.79.6-1.57,1-2.33.72-1.52,1.48-3,2.21-4.55a20.91,20.91,0,0,0,1.49-3.9,8.62,8.62,0,0,0,.1-4.59,7.66,7.66,0,0,0-.92-2.21,2.77,2.77,0,0,0-1.9-1.3c-.47-.08-1-.1-1.43-.14-.75,0-1.5-.06-2.25-.15a3.55,3.55,0,0,1-2-.89,14.66,14.66,0,0,0-3.08-2.09,8.94,8.94,0,0,0-3.29-1.05,4.53,4.53,0,0,0-3.15.83,7.14,7.14,0,0,0-2.18,2.75A18.41,18.41,0,0,0,106,99.28a56.51,56.51,0,0,0-1.06,8.09,22.68,22.68,0,0,0,.17,4.94,7.24,7.24,0,0,0,.75,2.39,2.68,2.68,0,0,0,3.11,1.44,8.6,8.6,0,0,0,4-2.1,2.69,2.69,0,0,0,.3-.37,1,1,0,0,1,.54-.37,1,1,0,0,1,1.13.34,1,1,0,0,1,.07,1.18,3.54,3.54,0,0,1-.6.74,10,10,0,0,1-2.9,2Zm-6.76-2.5c0-.15-.07-.22-.09-.29a11.52,11.52,0,0,1-.76-2.89,26.59,26.59,0,0,1,0-6.49c.15-1.62.39-3.23.63-4.83a29.38,29.38,0,0,1,1.18-5.07,13.69,13.69,0,0,1,2-4,7.24,7.24,0,0,1,3.43-2.59.71.71,0,0,0,.2-.1l-.14-.08a8.61,8.61,0,0,0-2.32-1,4.42,4.42,0,0,0-4.43,1.16,8.91,8.91,0,0,0-1.6,2.16A18.31,18.31,0,0,0,100.38,95a37.4,37.4,0,0,0-1.6,8.89,18.15,18.15,0,0,0,.34,5,10.28,10.28,0,0,0,1.83,4.12A8.19,8.19,0,0,0,103.83,115.4Z"/><path class="cls-1" d="M85.58,136.44a6.19,6.19,0,0,0-6.19-6.19h-3.1a5.42,5.42,0,1,0-5.42-5.42,5.42,5.42,0,0,0,5.42,5.42H73.2a6.2,6.2,0,0,0-6.2,6.19v10.84H85.58Z"/><path class="cls-1" d="M159.91,73a6.19,6.19,0,0,0-6.19-6.19h-3.1a5.42,5.42,0,1,0-5.42-5.42,5.42,5.42,0,0,0,5.42,5.42h-3.09a6.2,6.2,0,0,0-6.2,6.19V83.79h18.58Z"/><path class="cls-1" d="M152.17,117.08a14.73,14.73,0,0,1-14.71,14.72H93.33v3.09h44.13a17.81,17.81,0,1,0,0-35.61h-.77v3.09h.77A14.73,14.73,0,0,1,152.17,117.08Z"/><path class="cls-1" d="M89.46,102.37h.77V99.28h-.77a14.72,14.72,0,0,1,0-29.43h34.06v5.36l9.87-6.91-9.87-6.9v5.36H89.46a17.81,17.81,0,1,0,0,35.61Z"/></svg>