<svg id="Layer_1" data-name="Layer 1" xmlns="http://www.w3.org/2000/svg" viewBox="0 0 226.92 203.2"><defs><style>.cls-1{fill:#ff7b39;stroke:#ff7b39;stroke-miterlimit:10;}</style></defs><path class="cls-1" d="M131.46,123.26l-3.59-30.55a2.37,2.37,0,0,0-2.36-2.09h-3.44V85.93a8.62,8.62,0,1,0-17.23,0v4.69H101.4a2.36,2.36,0,0,0-2.35,2.09l-3.6,30.55a2.4,2.4,0,0,0,.58,1.83,2.37,2.37,0,0,0,1.78.8h31.3a2.35,2.35,0,0,0,1.77-.8A2.32,2.32,0,0,0,131.46,123.26ZM106.41,85.93a7.05,7.05,0,1,1,14.1,0v4.69h-14.1ZM129.71,124a.8.8,0,0,1-.6.27H97.81a.8.8,0,0,1-.6-.27.73.73,0,0,1-.19-.6l3.59-30.55a.79.79,0,0,1,.79-.69h3.44v2.49a2.35,2.35,0,1,0,1.57,0V92.2h14.1v2.49a2.35,2.35,0,1,0,3,1.43,2.37,2.37,0,0,0-1.44-1.43V92.2h3.44a.81.81,0,0,1,.8.69l3.59,30.55A.81.81,0,0,1,129.71,124Z"/><path class="cls-1" d="M111.89,108.06c0-2.32-1.11-5.68-3.13-5.68s-3.13,3.36-3.13,5.68a3.73,3.73,0,0,0,1.3,3.17l-1.23,5.41a3.13,3.13,0,0,0,6.12,1.27,3.39,3.39,0,0,0,0-1.27l-1.23-5.41A3.73,3.73,0,0,0,111.89,108.06ZM108.76,104c.5,0,1.57,1.94,1.57,4.11,0,1.93-.9,2.15-1.57,2.15s-1.57-.22-1.57-2.15C107.19,105.89,108.26,104,108.76,104Zm.35,7.83,1.18,5.2a1.5,1.5,0,0,1-.29,1.26,1.57,1.57,0,0,1-2.77-1.26l1.18-5.2Z"/><path class="cls-1" d="M120.51,102.38a.79.79,0,0,0-.79.78v5.27a1.57,1.57,0,0,1-1.36,1.77,1.59,1.59,0,0,1-1.77-1.36,1.41,1.41,0,0,1,0-.41v-5.27a.78.78,0,0,0-1.56,0h0v5.27a3.4,3.4,0,0,0,1.31,2.72l-1.24,5.49a3.12,3.12,0,1,0,6.11,1.27,3,3,0,0,0,0-1.27L120,111.15a3.41,3.41,0,0,0,1.32-2.72v-5.27A.78.78,0,0,0,120.51,102.38Zm-2,9.4,1.18,5.2a1.5,1.5,0,0,1-.29,1.26,1.57,1.57,0,0,1-2.77-1.26l1.18-5.2Z"/></svg>