<svg id="Layer_1" data-name="Layer 1" xmlns="http://www.w3.org/2000/svg" viewBox="0 0 226.92 203.2"><defs><style>.cls-1{fill:#ff7b39;}</style></defs><path class="cls-1" d="M138.4,96.41V96a5.8,5.8,0,0,0-3.1-5.08A7.27,7.27,0,0,0,128.44,86a4.35,4.35,0,0,0-.72,0,4.32,4.32,0,0,0-4-2.89,4.39,4.39,0,0,0-1.52.27,4.26,4.26,0,0,0-5.19-.7,4.29,4.29,0,0,0-6.06.27,3.65,3.65,0,0,0-.39.49,5.9,5.9,0,0,0-1.86-.31,5.75,5.75,0,0,0-4.57,2.27,7.11,7.11,0,0,0-3.91-1.14A7.29,7.29,0,0,0,93,90.41,5.76,5.76,0,0,0,88.47,96a1.84,1.84,0,0,0,0,.41,3.24,3.24,0,0,0-.79.86,2.94,2.94,0,0,0-.34,2.38,27.1,27.1,0,0,0,11.15,15.41,3.81,3.81,0,0,0,0,5.39,3.85,3.85,0,0,0,2.7,1.11h24.44a3.8,3.8,0,0,0,2.71-6.49,27.15,27.15,0,0,0,11.17-15.42,3,3,0,0,0-.34-2.38A3,3,0,0,0,138.4,96.41ZM94.2,92.9a1.31,1.31,0,0,0,1.31-1.31,4.65,4.65,0,0,1,8-3.21,1.32,1.32,0,0,0,1.85,0,1.28,1.28,0,0,0,.33-.53A3.08,3.08,0,0,1,109.64,86a3,3,0,0,1,.76.38,1.31,1.31,0,0,0,1.23.14,1.33,1.33,0,0,0,.79-1,1.67,1.67,0,0,1,3.14-.34,1.32,1.32,0,0,0,1.74.63,1.44,1.44,0,0,0,.49-.39,1.62,1.62,0,0,1,1.3-.65,1.67,1.67,0,0,1,1.5,1,1.32,1.32,0,0,0,2,.43,1.49,1.49,0,0,1,1-.37,1.69,1.69,0,0,1,1.67,1.6,1.32,1.32,0,0,0,1.06,1.52,1.34,1.34,0,0,0,.66-.05,4.41,4.41,0,0,1,1.4-.22A4.66,4.66,0,0,1,133,92.17a1.28,1.28,0,0,0,.79.91,3.18,3.18,0,0,1,2,2.74H91.1A3.11,3.11,0,0,1,94.2,92.9Zm32.32,25.67a1.2,1.2,0,0,1-.85.36H101.24a1.2,1.2,0,0,1-1.2-1.2h0a1.2,1.2,0,0,1,.74-1.1,1.22,1.22,0,0,1,.46-.09h24.43a1.27,1.27,0,0,1,.47.09,1.22,1.22,0,0,1,.38,2ZM137,99h0a24.53,24.53,0,0,1-11.8,15H101.72A24.57,24.57,0,0,1,89.89,99a.43.43,0,0,1,.29-.52H136.7a.43.43,0,0,1,.26.2.39.39,0,0,1,0,.33Zm-34.87-7.46a1.34,1.34,0,1,1-1.34-1.33h0A1.35,1.35,0,0,1,102.12,91.49Zm29.13,1.15a1.34,1.34,0,1,1-1.34-1.34A1.36,1.36,0,0,1,131.25,92.64Zm-18.52-2.46a1.34,1.34,0,1,1,1.34-1.34h0A1.35,1.35,0,0,1,112.73,90.18Zm11.73,2.46a1.34,1.34,0,1,1-1.34-1.34h0A1.37,1.37,0,0,1,124.46,92.64Zm-15.2,0a1.34,1.34,0,1,1-1.33-1.34h0a1.36,1.36,0,0,1,1.32,1.34Zm7,1.15a1.32,1.32,0,0,1-1.35,1.31,1.34,1.34,0,0,1,0-2.67,1.36,1.36,0,0,1,1.33,1.36Zm3.93-5.44A1.34,1.34,0,1,1,118.86,87a1.36,1.36,0,0,1,1.33,1.34Z"/></svg>