<svg id="Layer_1" data-name="Layer 1" xmlns="http://www.w3.org/2000/svg" viewBox="0 0 226.92 203.2"><defs><style>.cls-1{fill:#009e60;}</style></defs><path class="cls-1" d="M153,123.55h-79a1.75,1.75,0,0,1-1.76-1.75V81.4a1.76,1.76,0,0,1,1.76-1.76h79a1.75,1.75,0,0,1,1.75,1.76v40.4A1.75,1.75,0,0,1,153,123.55ZM75.7,120h75.52V83.16H75.7Z"/><path class="cls-1" d="M113.46,108.62a7,7,0,1,1,7-7A7,7,0,0,1,113.46,108.62Zm0-10.53A3.51,3.51,0,1,0,117,101.6,3.51,3.51,0,0,0,113.46,98.09Z"/><path class="cls-1" d="M140.78,116.53H104a1.76,1.76,0,0,1-1.76-1.76h0A1.76,1.76,0,0,1,104,113h35.16a7,7,0,0,1,5-5V95.23a7,7,0,0,1-5-5H87.77a7.05,7.05,0,0,1-5,5V108a7,7,0,0,1,5,5H97a1.76,1.76,0,0,1,1.76,1.76h0A1.76,1.76,0,0,1,97,116.53H86.14a1.71,1.71,0,0,1-1.66-1.79A3.52,3.52,0,0,0,81,111.26a1.72,1.72,0,0,1-1.79-1.66v-16A1.71,1.71,0,0,1,81,91.94a3.52,3.52,0,0,0,3.48-3.48,1.71,1.71,0,0,1,1.66-1.79h54.64a1.72,1.72,0,0,1,1.66,1.79,3.52,3.52,0,0,0,3.48,3.48,1.71,1.71,0,0,1,1.79,1.66v16a1.72,1.72,0,0,1-1.79,1.66,3.51,3.51,0,0,0-3.48,3.48A1.72,1.72,0,0,1,140.78,116.53Z"/></svg>