<svg id="Layer_1" data-name="Layer 1" xmlns="http://www.w3.org/2000/svg" viewBox="0 0 226.92 203.2"><defs><style>.cls-1{fill:#009e60;}</style></defs><path class="cls-1" d="M111.92,109.75c0-.11.08-.2.12-.29a3.9,3.9,0,0,1,3.06-2.35,6.46,6.46,0,0,1,2.73.17l.18.06a.55.55,0,0,1-.31,1.06c-.17,0-.34-.09-.51-.12a4.75,4.75,0,0,0-2.28,0,2.79,2.79,0,0,0-1.92,1.82v0l.18.1a8.83,8.83,0,0,1,1.65,1.11,1.44,1.44,0,0,0,1,.38l1.1,0a3.25,3.25,0,0,1,.93.17,2.55,2.55,0,0,1,1.3,1,5.5,5.5,0,0,1,.77,2,6,6,0,0,1-.18,2.66,14.14,14.14,0,0,1-1,2.5c-.35.73-.71,1.45-1,2.18a8.3,8.3,0,0,0-.44,1.07,3.6,3.6,0,0,1-1.6,2,7.33,7.33,0,0,1-2.29.87,10.52,10.52,0,0,1-2.74.19,3.29,3.29,0,0,1-1.39-.41,4.53,4.53,0,0,1-.89-.61.72.72,0,0,0-.49-.2,5.79,5.79,0,0,1-2.72-.81,5.47,5.47,0,0,1-2.38-2.89,8.11,8.11,0,0,1-.49-2.18,15.93,15.93,0,0,1,.19-4,20.29,20.29,0,0,1,.8-3.34,9.4,9.4,0,0,1,1.19-2.42,4.6,4.6,0,0,1,1.09-1.11,3.39,3.39,0,0,1,3-.5,6.2,6.2,0,0,1,2.4,1.31,1.28,1.28,0,0,0,.75.37A1.8,1.8,0,0,1,111.92,109.75ZM109.63,125a2.69,2.69,0,0,0,1.36.38,9.42,9.42,0,0,0,2.36-.24,5.59,5.59,0,0,0,1.79-.73,2.56,2.56,0,0,0,1.07-1.35,10.92,10.92,0,0,1,.5-1.23c.38-.81.79-1.61,1.18-2.42a11.87,11.87,0,0,0,.79-2.08,4.59,4.59,0,0,0,0-2.44,3.93,3.93,0,0,0-.49-1.18,1.51,1.51,0,0,0-1-.69c-.25,0-.5,0-.76-.07s-.8,0-1.19-.08a1.93,1.93,0,0,1-1.06-.47,7.93,7.93,0,0,0-1.64-1.12,4.71,4.71,0,0,0-1.75-.55,2.4,2.4,0,0,0-1.68.44,3.77,3.77,0,0,0-1.16,1.46,9.68,9.68,0,0,0-.79,2.46,29.74,29.74,0,0,0-.57,4.31,12.08,12.08,0,0,0,.1,2.62,3.7,3.7,0,0,0,.4,1.27,1.42,1.42,0,0,0,1.65.77,4.42,4.42,0,0,0,2.11-1.12,1.46,1.46,0,0,0,.16-.19.53.53,0,0,1,.29-.2.56.56,0,0,1,.6.18.54.54,0,0,1,0,.63,2,2,0,0,1-.32.39,5.21,5.21,0,0,1-1.55,1ZM106,123.61a.86.86,0,0,1-.05-.15,5.75,5.75,0,0,1-.4-1.53,14.31,14.31,0,0,1,0-3.46c.09-.86.21-1.71.34-2.57a15.46,15.46,0,0,1,.63-2.69,7.13,7.13,0,0,1,1-2.1,3.86,3.86,0,0,1,1.83-1.38l.1,0-.07-.05a4.93,4.93,0,0,0-1.24-.55,2.34,2.34,0,0,0-2.35.62,5.08,5.08,0,0,0-.86,1.15,10.34,10.34,0,0,0-.79,1.92,20.09,20.09,0,0,0-.85,4.73,9.64,9.64,0,0,0,.19,2.68,5.22,5.22,0,0,0,1,2.19A4.25,4.25,0,0,0,106,123.61Z"/><path class="cls-1" d="M110.21,100a1.11,1.11,0,0,1-1-.6,8.64,8.64,0,0,1-.75-5.23,11.4,11.4,0,0,1,2.42-5.42A11,11,0,0,1,122,85a14.45,14.45,0,0,1,6.58,3.78,28.4,28.4,0,0,1,2.51,2.77,1.1,1.1,0,1,1-1.72,1.38,26.33,26.33,0,0,0-2.31-2.55,12.38,12.38,0,0,0-5.56-3.24,9.06,9.06,0,0,0-7.11,1.33,9.07,9.07,0,0,0-3.75,6,6.58,6.58,0,0,0,.53,3.89,1.11,1.11,0,0,1-.47,1.49A1.19,1.19,0,0,1,110.21,100Z"/><path class="cls-1" d="M146.43,71.22a3,3,0,0,1-.33,1.34l-10,19.37L128,98.86h-.88l2.13-4.47,1-2.19L140.86,70a2.93,2.93,0,0,1,5.57,1.27Z"/><path class="cls-1" d="M128,100h-.88a1.1,1.1,0,0,1-1-1.58l13.77-28.9a4,4,0,0,1,7.67,1.74,4.1,4.1,0,0,1-.45,1.84l-10,19.37a.93.93,0,0,1-.26.33l-8.12,6.94A1.09,1.09,0,0,1,128,100ZM143.5,69.39a1.82,1.82,0,0,0-1.65,1L129.7,95.92l5.49-4.69,9.93-19.18a1.73,1.73,0,0,0,.21-.83,1.82,1.82,0,0,0-1-1.64A1.75,1.75,0,0,0,143.5,69.39Zm-7.43,22.54Z"/><path class="cls-1" d="M157.56,79.92a2.94,2.94,0,0,1-1.1,2.29L135.62,98.86H128l8.11-6.93L152.73,77.7a2.93,2.93,0,0,1,4.83,2.22Z"/><path class="cls-1" d="M135.62,100H128a1.1,1.1,0,0,1-.72-1.94l8.12-6.93L152,76.86a4,4,0,0,1,6.65,3.07,4,4,0,0,1-1.52,3.15L136.31,99.72A1.09,1.09,0,0,1,135.62,100Zm-4.68-2.2h4.29l20.54-16.41a1.84,1.84,0,0,0,.27-2.59,1.81,1.81,0,0,0-1.25-.65,1.79,1.79,0,0,0-1.35.43Z"/><path class="cls-1" d="M109.4,97.92c-.05.32-.11.63-.18.94H92.78a14.19,14.19,0,0,1-1-2.29A30,30,0,0,0,90.13,91a6.28,6.28,0,0,1,2.19-2.44A10.08,10.08,0,0,1,96.69,87c4.18-.53,8.74,1,11.18,4.45l.21.32A9.32,9.32,0,0,1,109.4,97.92Z"/><path class="cls-1" d="M109.22,100H92.78a1.1,1.1,0,0,1-1-.59,14.24,14.24,0,0,1-1-2.48c-.18-.6-.33-1.22-.47-1.81a16,16,0,0,0-1.16-3.55,1.09,1.09,0,0,1,0-1,7.26,7.26,0,0,1,2.57-2.87,11.08,11.08,0,0,1,4.84-1.74,12.93,12.93,0,0,1,12.22,4.91q.12.16.24.36a10.39,10.39,0,0,1,1.48,6.86,9.7,9.7,0,0,1-.2,1.05A1.1,1.1,0,0,1,109.22,100Zm-15.75-2.2h14.84a8.18,8.18,0,0,0-1.16-5.37l-.18-.27c-2-2.9-6.13-4.51-10.14-4a9.2,9.2,0,0,0-3.89,1.38,5.45,5.45,0,0,0-1.57,1.57,19.1,19.1,0,0,1,1.08,3.5c.14.58.28,1.14.44,1.68A12,12,0,0,0,93.47,97.76Z"/><path class="cls-1" d="M92.78,100H74.34a1.24,1.24,0,0,1-.27,0,8.45,8.45,0,0,1-3.76-2.06,6.46,6.46,0,0,1-2-4,6.78,6.78,0,0,1,2.11-5.65A6.34,6.34,0,0,1,73,86.83c0-.1-.09-.2-.13-.3a5.38,5.38,0,0,1,.3-4.57,6.74,6.74,0,0,1,6.7-3.13,9.55,9.55,0,0,1,3.62,1.32,3.83,3.83,0,0,1,1-1.77,4.31,4.31,0,0,1,4.93-.7,6.51,6.51,0,0,1,2.93,3.52,20.43,20.43,0,0,1,1.08,7.37,1.09,1.09,0,0,1-.48.94,5.31,5.31,0,0,0-1.57,1.56,19.1,19.1,0,0,1,1.08,3.5c.14.58.28,1.14.44,1.68a11.63,11.63,0,0,0,.87,2.1,1.12,1.12,0,0,1,0,1.08A1.11,1.11,0,0,1,92.78,100Zm-18.3-2.2h16.6q-.17-.44-.3-.87c-.18-.6-.33-1.22-.47-1.81a16,16,0,0,0-1.16-3.55,1.09,1.09,0,0,1,0-1A7.19,7.19,0,0,1,91.21,88a17.53,17.53,0,0,0-.91-6,4.5,4.5,0,0,0-1.89-2.37,2.11,2.11,0,0,0-2.38.29,1.81,1.81,0,0,0-.46,1.2,1,1,0,0,0,.24.69,1.11,1.11,0,0,1-1.48,1.64A9.39,9.39,0,0,0,79.59,81a4.6,4.6,0,0,0-4.51,2,3.14,3.14,0,0,0-.16,2.65,1.73,1.73,0,0,0,1,1.07,1.1,1.1,0,0,1-.58,2.12,3.89,3.89,0,0,0-3.45,1,4.57,4.57,0,0,0-1.42,3.78C70.73,95.81,72.65,97.25,74.48,97.76Z"/><path class="cls-1" d="M126.39,136H92.56a1,1,0,0,1-.46-.11,40.89,40.89,0,0,1-23.54-37,1.1,1.1,0,0,1,1.1-1.1h79.63a1.1,1.1,0,0,1,1.1,1.1,40.89,40.89,0,0,1-23.54,37.05A1,1,0,0,1,126.39,136Zm-33.58-2.21h33.33a38.89,38.89,0,0,0,22-33.85H70.78A38.89,38.89,0,0,0,92.81,133.81Z"/></svg>