<svg id="Layer_1" data-name="Layer 1" xmlns="http://www.w3.org/2000/svg" viewBox="0 0 226.92 203.2"><defs><style>.cls-1{fill:#009e60;}.cls-2{fill:none;}</style></defs><path class="cls-1" d="M113.94,97c0-.07,0-.13.08-.19a2.57,2.57,0,0,1,2-1.56,4.43,4.43,0,0,1,1.81.11l.12.05a.34.34,0,0,1,.22.44.35.35,0,0,1-.42.26l-.35-.08a3.09,3.09,0,0,0-1.51,0,1.9,1.9,0,0,0-1.27,1.21,0,0,0,0,0,0,0l.12.07a5.69,5.69,0,0,1,1.08.73,1,1,0,0,0,.67.25l.73,0a2.12,2.12,0,0,1,.61.11,1.63,1.63,0,0,1,.86.69,3.29,3.29,0,0,1,.51,1.31,3.92,3.92,0,0,1-.11,1.77,9.79,9.79,0,0,1-.66,1.65l-.7,1.44a7.06,7.06,0,0,0-.29.71,2.38,2.38,0,0,1-1.06,1.31,4.87,4.87,0,0,1-1.51.58,7,7,0,0,1-1.82.12,2.17,2.17,0,0,1-.92-.27,2.92,2.92,0,0,1-.59-.4.42.42,0,0,0-.32-.13,4,4,0,0,1-1.81-.54,3.67,3.67,0,0,1-1.57-1.92,5.09,5.09,0,0,1-.32-1.44,10,10,0,0,1,.12-2.62,13.94,13.94,0,0,1,.53-2.21A6,6,0,0,1,109,96.9a2.94,2.94,0,0,1,.72-.73,2.21,2.21,0,0,1,2-.33,3.92,3.92,0,0,1,1.59.86.89.89,0,0,0,.5.25A.74.74,0,0,1,113.94,97Zm-1.52,10.07a1.84,1.84,0,0,0,.9.26,6.27,6.27,0,0,0,1.56-.17,3.63,3.63,0,0,0,1.19-.48,1.73,1.73,0,0,0,.71-.89,6.38,6.38,0,0,1,.33-.82c.25-.54.52-1.07.78-1.6a7.66,7.66,0,0,0,.52-1.38,3.07,3.07,0,0,0,0-1.62,2.82,2.82,0,0,0-.33-.78,1,1,0,0,0-.66-.45,4.4,4.4,0,0,0-.51,0c-.26,0-.53,0-.79-.06a1.18,1.18,0,0,1-.7-.31,5.81,5.81,0,0,0-1.09-.74,3.08,3.08,0,0,0-1.16-.36,1.57,1.57,0,0,0-1.11.29,2.52,2.52,0,0,0-.77,1,6.6,6.6,0,0,0-.52,1.63,21,21,0,0,0-.38,2.85,7.81,7.81,0,0,0,.07,1.74,2.49,2.49,0,0,0,.26.84.94.94,0,0,0,1.09.51,3,3,0,0,0,1.4-.74l.11-.13a.36.36,0,0,1,.19-.13.37.37,0,0,1,.4.12.33.33,0,0,1,0,.41,1.09,1.09,0,0,1-.21.27,3.5,3.5,0,0,1-1,.68Zm-2.38-.88c0-.06,0-.08,0-.1a4,4,0,0,1-.27-1,9.24,9.24,0,0,1,0-2.29c0-.57.13-1.14.22-1.7a10.81,10.81,0,0,1,.41-1.79,4.91,4.91,0,0,1,.7-1.39,2.54,2.54,0,0,1,1.21-.91l.07,0,0,0a2.9,2.9,0,0,0-.82-.37,1.57,1.57,0,0,0-1.56.41,3,3,0,0,0-.56.76,6.52,6.52,0,0,0-.53,1.28,13.27,13.27,0,0,0-.56,3.13,6.57,6.57,0,0,0,.12,1.77,3.53,3.53,0,0,0,.65,1.45A2.75,2.75,0,0,0,110,106.18Z"/><path class="cls-2" d="M131.94,79.13H95v44.93h37Zm-18.48,37.65a15.18,15.18,0,1,1,15.18-15.18A15.2,15.2,0,0,1,113.46,116.78Z"/><path class="cls-2" d="M95,126.36V130a3.82,3.82,0,0,0,3.82,3.82h29.32a3.83,3.83,0,0,0,3.82-3.82v-3.65Zm21.87,4.9h-6.78a1.15,1.15,0,0,1,0-2.3h6.78a1.15,1.15,0,1,1,0,2.3Z"/><path class="cls-1" d="M128.12,67.06H98.8a6.13,6.13,0,0,0-6.12,6.13V130a6.12,6.12,0,0,0,6.12,6.12h29.32a6.13,6.13,0,0,0,6.12-6.12V73.19A6.13,6.13,0,0,0,128.12,67.06ZM95,79.13h37v44.93H95Zm3.82-9.76h29.31a3.83,3.83,0,0,1,3.83,3.82v3.64H95V73.19A3.82,3.82,0,0,1,98.8,69.37Zm29.32,64.46H98.8A3.83,3.83,0,0,1,95,130v-3.65h37V130A3.83,3.83,0,0,1,128.12,133.83Z"/><path class="cls-1" d="M116.85,129h-6.78a1.15,1.15,0,0,0,0,2.3h6.78a1.15,1.15,0,1,0,0-2.3Z"/><path class="cls-1" d="M113.46,86.42a15.18,15.18,0,1,0,15.18,15.18A15.2,15.2,0,0,0,113.46,86.42Zm0,28.06a12.88,12.88,0,1,1,12.87-12.88A12.9,12.9,0,0,1,113.46,114.48Z"/></svg>