<svg id="Layer_1" data-name="Layer 1" xmlns="http://www.w3.org/2000/svg" viewBox="0 0 193.63 136.02"><defs><style>.cls-1,.cls-3,.cls-4{fill:#009e60;}.cls-2{fill:#f9da03;}.cls-3,.cls-4{stroke:#009e60;stroke-miterlimit:10;}.cls-3{stroke-width:2px;}.cls-4{stroke-width:0.75px;}</style></defs><path class="cls-1" d="M135.64,7.85H37.75a4.83,4.83,0,0,0-4.82,4.82V79.93a4.82,4.82,0,0,0,4.82,4.82H77.52l-.81,8.67c0,.51-.59,5-9,5a2.05,2.05,0,1,0,0,4.1h38a2.05,2.05,0,1,0,0-4.1c-8.41,0-9-4.45-9-5l-.8-8.58h39.77a4.82,4.82,0,0,0,4.82-4.82V12.67A4.82,4.82,0,0,0,135.64,7.85ZM78.78,98.38a8.7,8.7,0,0,0,2-4.67l.83-9H91.75l.82,8.84a8.84,8.84,0,0,0,2.05,4.79Zm57.57-18.45a.71.71,0,0,1-.71.71H37.75a.71.71,0,0,1-.71-.71V12.67a.71.71,0,0,1,.71-.71h97.89a.71.71,0,0,1,.71.71Z"/><path class="cls-2" d="M86.7,49.16c-8,0-13.12,3.3-14.16,9.06a21.33,21.33,0,0,0-.2,2.91,1.5,1.5,0,0,0,3,0,19.74,19.74,0,0,1,.15-2.38c1-5.73,7.47-6.59,11.21-6.59,3.16,0,10.58.71,11.3,7.24,0,.28,0,1.87,0,2.46a1.5,1.5,0,0,0,3,0s0-2.23-.07-2.79C100.3,52.87,95,49.16,86.7,49.16Zm0-1.49c4.51,0,8.18-4.37,8.18-9.73,0-5.12-3.36-8.7-8.18-8.7s-8.19,3.58-8.19,8.7C78.51,43.3,82.19,47.67,86.7,47.67Zm0-15.43c3.15,0,5.18,2.24,5.18,5.7,0,3.71-2.32,6.73-5.18,6.73s-5.19-3-5.19-6.73C81.51,34.48,83.55,32.24,86.7,32.24Z"/><path class="cls-3" d="M158.2,114.29a.47.47,0,0,0,0-.38c2.42-3.94,4-8.85.64-12.66S148,95,144,98.85c-2.45,2.34-3.71,6-5.06,9.06s-3.08,6.29-3.48,9.63c-.67,5.25,5.18,10.32,10.19,10.62,2.73.17,5-1.45,6.65-3.5A38.1,38.1,0,0,0,158.2,114.29Zm-14.09,12.64c-2.85-.9-6.6-3.53-7.51-6.55-1-3.31,1.1-7.09,2.36-10.09a60.31,60.31,0,0,1,4.31-9c2.44-3.78,6-4,9.92-2.51s6.91,4,6.62,8.38c-.2,3.58-2.42,6.54-4.23,9.49-.17.28.31.55.47.32h0C153.64,122.15,149.93,128.71,144.11,126.93Z"/><path class="cls-4" d="M153,105.17a2.55,2.55,0,0,0,.24-3.1,1.73,1.73,0,0,0-1.62-.69c-.91.2-1.2,1.19-1.49,1.92-.54,1.29-2.11,3.83-.09,4.65,1.75.75,3-1,3-2.59Zm-1.55,2c-.93.59-1.66-.15-1.66-1.06s.8-2.09,1.13-2.91,1-1.65,1.77-1c.68.51.51,1.45.24,2.15l-.27.59c-.21,0-.37.14-.4.43a.7.7,0,0,1,0,.29,6.12,6.12,0,0,0-.6,1.2s.06.08.08,0l.34-.4A2.62,2.62,0,0,1,151.43,107.22Z"/></svg>