<svg id="Layer_1" data-name="Layer 1" xmlns="http://www.w3.org/2000/svg" viewBox="0 0 226.92 203.2"><defs><style>.cls-1{fill:#ff7b39;}</style></defs><path class="cls-1" d="M114.13,93.45a1.61,1.61,0,0,0-1.62,1.62v8.09a1.6,1.6,0,0,0,.89,1.45l6.09,3.13a1.72,1.72,0,0,0,.72.17,1.62,1.62,0,0,0,.73-3.07l-5.19-2.68V95.07A1.62,1.62,0,0,0,114.13,93.45Z"/><path class="cls-1" d="M129,94.12h.06a1.78,1.78,0,0,0,1.06-.39,1.42,1.42,0,0,0,.5-1.12l.33-6.92a1.62,1.62,0,1,0-3.23-.11L127.63,88A18.74,18.74,0,1,0,130.31,112a1.61,1.61,0,0,0-.44-2.23,1.63,1.63,0,0,0-2.24.44,15.54,15.54,0,1,1-1.78-19.36l-3.69-.17a1.62,1.62,0,0,0-.11,3.24Z"/></svg>