<svg id="Layer_1" data-name="Layer 1" xmlns="http://www.w3.org/2000/svg" viewBox="0 0 193.63 136.02"><defs><style>.cls-1{fill:#f7f7f7;}.cls-2{fill:#939393;fill-rule:evenodd;}</style></defs><rect class="cls-1" x="42.84" y="14.03" width="107.96" height="107.96" rx="13.92"/><path class="cls-2" d="M73.08,61.81c1.47-4.1,3-8.2,4.5-12.31A10.84,10.84,0,0,1,83.92,44h25.69A10.6,10.6,0,0,1,116,49.5c1.56,4.11,3,8.21,4.58,12.31a36.54,36.54,0,0,1,4.2,6.15c0,7.32.2,14.75.2,22.17a1.84,1.84,0,0,1-1.86,1.76h-9.27A1.84,1.84,0,0,1,112,90.13v-6a157.23,157.23,0,0,1-30.37,0v6a1.78,1.78,0,0,1-1.85,1.76H70.55a1.78,1.78,0,0,1-1.86-1.76c0-7.42.1-14.85.1-22.17A37.13,37.13,0,0,1,73.08,61.81ZM84.41,48.33a4.36,4.36,0,0,0-3.32,2.74c-1.17,3.22-2.44,6.93-3.51,10.15a149.21,149.21,0,0,1,38.47,0c-1.07-3.22-2.44-6.93-3.51-10.15a4.51,4.51,0,0,0-3.42-2.74Zm34.77,21.19h-7.33a1.09,1.09,0,0,0-1.07,1.08v3.22a1.08,1.08,0,0,0,1.07,1.07h7.33a1.08,1.08,0,0,0,1.07-1.07V70.6A1.09,1.09,0,0,0,119.18,69.52Zm-44.83,0h7.33a1.09,1.09,0,0,1,1.07,1.08v3.22a1.08,1.08,0,0,1-1.07,1.07H74.35a1.08,1.08,0,0,1-1.07-1.07V70.6A1.09,1.09,0,0,1,74.35,69.52Z"/></svg>