<svg id="Layer_1" data-name="Layer 1" xmlns="http://www.w3.org/2000/svg" viewBox="0 0 193.63 136.02"><defs><style>.cls-1{fill:#282828;}</style></defs><path class="cls-1" d="M92.93,75.77V72.38a1,1,0,0,1,1.94,0v3.39a1,1,0,0,0,1,1h8.73a1,1,0,0,0,1-1V60.25a1,1,0,0,0-1-1H95.84a1,1,0,0,0-1,1v3.4a1,1,0,0,1-1.94,0v-3.4a2.91,2.91,0,0,1,2.91-2.91h8.73a2.91,2.91,0,0,1,2.91,2.91V75.77a2.91,2.91,0,0,1-2.91,2.91H95.84A2.91,2.91,0,0,1,92.93,75.77Z"/><path class="cls-1" d="M86.63,68a1,1,0,0,1,1-1h12.7a1,1,0,0,1,0,1.94H87.6A1,1,0,0,1,86.63,68Z"/><path class="cls-1" d="M89.34,71.61,86.43,68.7h0a1,1,0,0,1,0-1.37l2.91-2.91a1,1,0,0,1,1.37,0,1,1,0,0,1,0,1.38L88.49,68l2.22,2.23a1,1,0,0,1,.28.68,1,1,0,0,1-1.65.69Z"/></svg>