<svg id="Layer_1" data-name="Layer 1" xmlns="http://www.w3.org/2000/svg" viewBox="0 0 226.92 203.2"><defs><style>.cls-1{fill:#ff7b39;}.cls-2{fill:none;stroke:#ff7b39;stroke-miterlimit:10;stroke-width:3px;}</style></defs><path class="cls-1" d="M134.33,73.46l.13-.31a4.18,4.18,0,0,1,3.29-2.53,6.79,6.79,0,0,1,2.94.18l.2.07a.59.59,0,0,1,.36.72.59.59,0,0,1-.69.42c-.19,0-.37-.1-.56-.13a5.08,5.08,0,0,0-2.45,0,3,3,0,0,0-2.07,2v.06l.2.1a8.89,8.89,0,0,1,1.77,1.2,1.61,1.61,0,0,0,1.08.4l1.18,0a3.77,3.77,0,0,1,1,.19,2.66,2.66,0,0,1,1.4,1.11,5.66,5.66,0,0,1,.83,2.14,6.29,6.29,0,0,1-.19,2.86,16.1,16.1,0,0,1-1.06,2.7c-.38.78-.77,1.55-1.14,2.34a8.16,8.16,0,0,0-.47,1.15,3.87,3.87,0,0,1-1.73,2.12,7.51,7.51,0,0,1-2.46.94,11.22,11.22,0,0,1-2.95.2,3.43,3.43,0,0,1-1.49-.44,4.5,4.5,0,0,1-1-.65.76.76,0,0,0-.53-.21,6.3,6.3,0,0,1-2.93-.88,6,6,0,0,1-2.56-3.11,8.6,8.6,0,0,1-.52-2.35,17.38,17.38,0,0,1,.19-4.26,23.19,23.19,0,0,1,.87-3.59,10.05,10.05,0,0,1,1.28-2.61,4.9,4.9,0,0,1,1.17-1.19,3.67,3.67,0,0,1,3.19-.54A6.59,6.59,0,0,1,133.23,73a1.48,1.48,0,0,0,.81.4A2,2,0,0,1,134.33,73.46Zm-2.46,16.36a2.88,2.88,0,0,0,1.46.41,9.88,9.88,0,0,0,2.54-.26,5.89,5.89,0,0,0,1.93-.78,2.73,2.73,0,0,0,1.14-1.45,12.83,12.83,0,0,1,.55-1.33c.41-.88.85-1.74,1.26-2.61a12.84,12.84,0,0,0,.86-2.23,5,5,0,0,0,0-2.63,4.42,4.42,0,0,0-.52-1.27,1.62,1.62,0,0,0-1.09-.74,7.58,7.58,0,0,0-.82-.08c-.43,0-.86,0-1.29-.09a2,2,0,0,1-1.14-.51A8.38,8.38,0,0,0,135,75.06a5,5,0,0,0-1.89-.6,2.58,2.58,0,0,0-1.8.47,4.11,4.11,0,0,0-1.25,1.58,10.25,10.25,0,0,0-.85,2.65,32.78,32.78,0,0,0-.61,4.63,13.39,13.39,0,0,0,.1,2.83,4.32,4.32,0,0,0,.43,1.36,1.53,1.53,0,0,0,1.78.83,5,5,0,0,0,2.27-1.2,1.81,1.81,0,0,0,.18-.21.59.59,0,0,1,.95,0,.56.56,0,0,1,0,.67,2,2,0,0,1-.34.43,5.85,5.85,0,0,1-1.66,1.12ZM128,88.38a1.26,1.26,0,0,1,0-.16,6.29,6.29,0,0,1-.44-1.65,16,16,0,0,1,0-3.72c.09-.93.22-1.85.36-2.77a17.19,17.19,0,0,1,.68-2.9,7.85,7.85,0,0,1,1.13-2.26,4.09,4.09,0,0,1,2-1.48l.11-.06-.08,0a4.69,4.69,0,0,0-1.33-.6,2.55,2.55,0,0,0-2.54.67,5.23,5.23,0,0,0-.91,1.23,10.65,10.65,0,0,0-.86,2.07,21.51,21.51,0,0,0-.91,5.09,10,10,0,0,0,.2,2.89,5.89,5.89,0,0,0,1,2.36A4.6,4.6,0,0,0,128,88.38Z"/><path class="cls-2" d="M157.63,80.94a23.52,23.52,0,0,1-37.34,19l-13,7.51,4.21-19.89a23.21,23.21,0,0,1-1-6.66,23.52,23.52,0,0,1,47,0Z"/><path class="cls-2" d="M94.21,99.88a4.31,4.31,0,0,0,0-6.09L82.92,82.5a4.31,4.31,0,0,0-6.09,0l-4.64,4.64,17.38,17.38Z"/><path class="cls-2" d="M132.56,138.22a4.31,4.31,0,0,0,0-6.09l-11.29-11.28a4.31,4.31,0,0,0-6.09,0l-4.64,4.64,17.37,17.38Z"/><path class="cls-2" d="M96.62,118.44c-5.78-5.78-9-12-7.05-13.92L72.19,87.14l-1.43,1.44c-5.05,5,3.34,21.6,18.73,37s32,23.77,37,18.73l1.43-1.43-17.37-17.38C108.64,127.38,102.4,124.22,96.62,118.44Z"/></svg>