<svg id="Layer_1" data-name="Layer 1" xmlns="http://www.w3.org/2000/svg" viewBox="0 0 193.63 136.02"><defs><style>.cls-1,.cls-2,.cls-3{fill:#009e60;}.cls-2,.cls-3{stroke:#009e60;stroke-miterlimit:10;}.cls-2{stroke-width:2px;}.cls-3{stroke-width:0.75px;}.cls-4{fill:#f9da03;fill-rule:evenodd;}</style></defs><path class="cls-1" d="M135.64,7.85H37.75a4.83,4.83,0,0,0-4.82,4.82V79.93a4.82,4.82,0,0,0,4.82,4.82H77.52l-.81,8.67c0,.51-.59,5-9,5a2.05,2.05,0,1,0,0,4.1h38a2.05,2.05,0,1,0,0-4.1c-8.41,0-9-4.45-9-5l-.8-8.58h39.77a4.82,4.82,0,0,0,4.82-4.82V12.67A4.82,4.82,0,0,0,135.64,7.85ZM78.78,98.38a8.7,8.7,0,0,0,2-4.67l.83-9H91.75l.82,8.84a8.84,8.84,0,0,0,2.05,4.79Zm57.57-18.45a.71.71,0,0,1-.71.71H37.75a.71.71,0,0,1-.71-.71V12.67a.71.71,0,0,1,.71-.71h97.89a.71.71,0,0,1,.71.71Z"/><path class="cls-2" d="M158.2,114.29a.47.47,0,0,0,0-.38c2.42-3.94,4-8.85.64-12.66S148,95,144,98.85c-2.45,2.34-3.71,6-5.06,9.06s-3.08,6.29-3.48,9.63c-.67,5.25,5.18,10.32,10.19,10.62,2.73.17,5-1.45,6.65-3.5A38.1,38.1,0,0,0,158.2,114.29Zm-14.09,12.64c-2.85-.9-6.6-3.53-7.51-6.55-1-3.31,1.1-7.09,2.36-10.09a60.31,60.31,0,0,1,4.31-9c2.44-3.78,6-4,9.92-2.51s6.91,4,6.62,8.38c-.2,3.58-2.42,6.54-4.23,9.49-.17.28.31.55.47.32h0C153.64,122.15,149.93,128.71,144.11,126.93Z"/><path class="cls-3" d="M153,105.17a2.55,2.55,0,0,0,.24-3.1,1.73,1.73,0,0,0-1.62-.69c-.91.2-1.2,1.19-1.49,1.92-.54,1.29-2.11,3.83-.09,4.65,1.75.75,3-1,3-2.59Zm-1.55,2c-.93.59-1.66-.15-1.66-1.06s.8-2.09,1.13-2.91,1-1.65,1.77-1c.68.51.51,1.45.24,2.15l-.27.59c-.21,0-.37.14-.4.43a.7.7,0,0,1,0,.29,6.12,6.12,0,0,0-.6,1.2s.06.08.08,0l.34-.4A2.62,2.62,0,0,1,151.43,107.22Z"/><path class="cls-4" d="M72.25,56a1.35,1.35,0,0,1,1.42-1.32H99.73c1.78,0,2.15,2.74-.47,2.74H74.14C73.14,57.43,72.25,57,72.25,56Zm2.93-6A9.23,9.23,0,0,1,81,41.09c2.1-.83,4.69-.66,7.08-.66,2.86,0,5.35.65,7.25,2.58,2.75,2.77,2.86,4.92,2.86,8.85h-23ZM84.9,35.81c0-2.4,3.59-2.25,3.59-.1a1.8,1.8,0,1,1-3.59.1Zm-2.83-.28c0,1.71.09,1,.38,2.26A11.86,11.86,0,0,0,77.14,40c-.29.24-.55.48-.83.69a12.78,12.78,0,0,0-3.51,5.64c-.64,2.52-.45,3.14-.45,5.69a4.21,4.21,0,0,0-2.93,3.87,4.1,4.1,0,0,0,3.78,4.25h27c3,0,5.08-4,2.87-6.74a4.24,4.24,0,0,0-2-1.38c0-1,0-2,0-3a12.11,12.11,0,0,0-2.48-6.67,11.29,11.29,0,0,0-3.15-2.9A11.81,11.81,0,0,0,91,37.79a4.86,4.86,0,0,0,.37-2.26,4.63,4.63,0,0,0-8.8-1.73A4.78,4.78,0,0,0,82.07,35.53Z"/></svg>