<svg id="Layer_1" data-name="Layer 1" xmlns="http://www.w3.org/2000/svg" viewBox="0 0 193.63 136.02"><defs><style>.cls-1{fill:#f7f7f7;}.cls-2{fill:#939393;}</style></defs><rect class="cls-1" x="42.84" y="14.03" width="107.96" height="107.96" rx="13.92"/><path class="cls-2" d="M121.31,51.81a8.21,8.21,0,0,0-6-2.73h-5.72a13.63,13.63,0,0,0-26.72,0H77.18A8.18,8.18,0,0,0,69,57.24c0,.18,0,.36,0,.54l1.72,27.58A13.63,13.63,0,0,0,84.35,98.15h23.82A13.64,13.64,0,0,0,121.8,85.36l1.72-27.58A8.18,8.18,0,0,0,121.31,51.81Zm-25-8.18A8.18,8.18,0,0,1,104,49.08H88.57A8.17,8.17,0,0,1,96.26,43.63Zm0,30A13.63,13.63,0,0,1,82.63,60a2.73,2.73,0,1,1,5.45,0,8.18,8.18,0,0,0,16.36,0,2.73,2.73,0,1,1,5.45,0A13.63,13.63,0,0,1,96.26,73.62Z"/></svg>