<svg id="Layer_1" data-name="Layer 1" xmlns="http://www.w3.org/2000/svg" viewBox="0 0 226.92 203.2"><defs><style>.cls-1{fill:#f9da03;}.cls-2{fill:#009e60;}</style></defs><circle class="cls-1" cx="113.46" cy="101.6" r="17"/><path class="cls-2" d="M112.89,94.38c3.85,0,6.62,2.76,6.57,6.14a7,7,0,0,1-.71,2.6,36,36,0,0,1-3.23,5.62c-.64,1-1.32,1.91-2,2.84-.12.15-.17.16-.29,0a54.33,54.33,0,0,1-4.7-7.3,12.66,12.66,0,0,1-1.08-2.67,5.38,5.38,0,0,1,.78-4.41A5.81,5.81,0,0,1,112.89,94.38Zm.5,3.15a2.95,2.95,0,1,0,2.92,3A2.93,2.93,0,0,0,113.39,97.53Z"/></svg>