<svg id="Layer_1" data-name="Layer 1" xmlns="http://www.w3.org/2000/svg" viewBox="0 0 226.92 203.2"><defs><style>.cls-1{fill:#ff7b39;}</style></defs><path class="cls-1" d="M113.4,58.48h0A64.63,64.63,0,0,1,122,71.4h0a23.65,23.65,0,0,1-4.21,1.19h0a22.62,22.62,0,0,1-4,.34,21,21,0,0,1-2.76-.17A32.81,32.81,0,0,1,105,71.18h0a65.42,65.42,0,0,1,8.45-12.7Zm.06,23.31h0a5.5,5.5,0,1,1-5.5,5.49,5.49,5.49,0,0,1,5.5-5.49Zm0-2.78h0a8.28,8.28,0,1,0,8.27,8.27A8.27,8.27,0,0,0,113.46,79Zm0,22.39h0a1.39,1.39,0,0,0-1.39,1.39h0v14.6a1.39,1.39,0,0,0,2.78,0v-14.6h0a1.39,1.39,0,0,0-1.39-1.39Zm-9.63-27.67h0a36.06,36.06,0,0,0,6.84,1.78,25.16,25.16,0,0,0,7.58-.19h0A26.78,26.78,0,0,0,123.07,74h0a37.83,37.83,0,0,1,1.53,4.89c2.27,9.31,1.78,21.82,1.28,29a53.5,53.5,0,0,1-1.09,9.13h0l-1.54.07a1.51,1.51,0,0,0-1.33,1l-1,2.72h-15l-1-2.75a1.5,1.5,0,0,0-1.35-1L102,117a54.83,54.83,0,0,1-1.09-9.13c-.48-7.19-1-19.7,1.29-29a39.68,39.68,0,0,1,1.61-5.11ZM129,106h0l4.46,4.21-3,14.66-2.87-6.68h0c.44-1.62.86-3.76,1.29-10.08,0-.66.09-1.36.14-2.11Zm-31.17.1h0c0,.71.08,1.38.13,2,.44,6.51.87,8.59,1.32,10.24h0l-2.83,6.54-3-14.67,4.37-4.11Zm23,17.69h0l.55,1.65H105.59l.66-1.65h14.57ZM113.4,54.6h0a1.48,1.48,0,0,0-1.16.55c-5.15,6.41-10.51,13.06-12.92,23-1.85,7.6-1.95,17.06-1.67,24.28h0L91,108.68a1.38,1.38,0,0,0-.4,1.29l4,19.75a1.38,1.38,0,0,0,1.22,1.1H96a1.39,1.39,0,0,0,1.27-.84l4.33-10h0l.85,0,1,2.79a2,2,0,0,0,.1.21h0l-1.32,3.28a1.39,1.39,0,0,0,1.29,1.9H123.3a1.39,1.39,0,0,0,1.13-.57,1.41,1.41,0,0,0,.19-1.26l-1.23-3.65,1-2.69,1,0h0l4.31,10a1.4,1.4,0,0,0,1.27.84h.15a1.38,1.38,0,0,0,1.21-1.1L136.33,110a1.37,1.37,0,0,0-.41-1.28l-6.75-6.38h0c.28-7.2.17-16.61-1.67-24.17-2.41-9.93-7.78-16.58-12.93-23a1.5,1.5,0,0,0-1.17-.55Zm-6.19,75h0a1.39,1.39,0,0,0-1.39,1.39h0v9.31a1.4,1.4,0,0,0,2.79,0V131h0a1.4,1.4,0,0,0-1.4-1.39Zm12.49,0h0a1.39,1.39,0,0,0-1.39,1.39h0v9.31a1.4,1.4,0,0,0,2.79,0V131h0a1.4,1.4,0,0,0-1.4-1.39Zm-6.21,5h0a1.4,1.4,0,0,0-1.39,1.4h0v11.16a1.4,1.4,0,0,0,2.79,0V136.05h0a1.4,1.4,0,0,0-1.4-1.4Z"/></svg>