<svg id="Layer_1" data-name="Layer 1" xmlns="http://www.w3.org/2000/svg" viewBox="0 0 371.43 359.75"><defs><style>.cls-1{fill:#ffb050;}.cls-2{fill:#007c7d;}.cls-3{fill:#ff5f00;}</style></defs><path class="cls-1" d="M309.87,296.44a.59.59,0,0,0-1.16.18c-.34,5.86-1.66,10.39-6.74,13.82-4.64,3.13-10.62,4-16.09,3.93-10.37-.08-19.89-4.47-25.17-12.69,7.65,4.22,19.72-.82,27-3.2a.58.58,0,0,0-.34-1.1c-4.45,1.3-8.85,2.82-13.4,3.79a22.14,22.14,0,0,1-9,.13,9.76,9.76,0,0,1-2.52-.88l.33-1.12a.34.34,0,0,0,.05-.17c.8-2.66,1.63-4.92,4-6.87,2.59-2.13,6-3.16,9.15-4,6.3-1.63,12.86-1.81,19.29-2.6.83-.1.83-1.38,0-1.32-7.73.46-15.53.54-23,2.84-5.15,1.58-11.23,5.65-11.14,11.47-1.12-.1-1.75-.18-1.89-1.15a.44.44,0,0,0,.13-.4c0-.3-.07-.6-.11-.9s.06-.44.1-.69a18.3,18.3,0,0,1,2.75-6.88c2.81-4.52,7.61-7.6,12.29-9.88,9.31-4.54,21.68-6.43,31.62-3,.48.17.64-.58.18-.75-14.14-5.17-40.47.26-47,15.77.7-5.71,3.91-10.1,9.9-13.17,6.78-3.47,14.18-3.22,21.3-5.17.84-.23.53-1.34-.23-1.41-8-.73-18,2.32-24.75,6.46a16.68,16.68,0,0,0-6.78,7.71c-.91-2.15-2.27-4-3-6.26-.88-3-.46-6.23.23-9.18,1.49-6.36,5.71-12.08,10.68-16.19a20.51,20.51,0,0,1,17.82-4.49c6.32,1.38,11.16,6.34,15.45,10.84,3.52,3.71,6.94,7.43,11.17,10.35s9,3.46,13.92,3.42a58.55,58.55,0,0,0,17.61-3.34c4.72-1.55,10.64-3.72,14.09-7.45a.81.81,0,0,0-1-1.22c-5.84,3.07-11.18,6.06-17.61,7.89-6.94,2-16.2,3.59-23.08.54-11.08-4.93-16-18.38-27.78-22.36-10.86-3.67-21.48,1.62-27.89,10.63a30.47,30.47,0,0,0-6,15.58c-.3,4.07,1,10,5,11.94h.09a17.33,17.33,0,0,0-.71,9c-.06-.2-.13-.39-.19-.59a.58.58,0,0,0-1.13.18c0,.63.13,1.24.23,1.83a.4.4,0,0,0-.38.61,13.76,13.76,0,0,0,.78,1.24c3.23,12,17.48,17.66,29,18.07C296.59,316.66,313.86,310.21,309.87,296.44Z"/><path class="cls-1" d="M304.86,322.27c6.7-7.68,9.57-17.53,14.6-26.19,6.56-11.29,17-18.93,29.05-23.56a.46.46,0,0,0-.26-.88,49.4,49.4,0,0,0-23.42,14c-7.13,7.39-10.52,16.78-15.34,25.63-3.76,6.92-9,14.78-17.14,16.7-9.73,2.3-18.78-7.67-24.37-14.12-1-1.13-2.53.58-1.57,1.69,5.64,6.54,12.55,13.63,21.52,14.92C294.78,331.41,300.59,327.16,304.86,322.27Z"/><path class="cls-1" d="M260.05,279c2.55-7.54,14.73-23.75,24.13-18.9a.44.44,0,0,0,.58-.61c-3.14-4.91-10.07-.44-13.33,2.06-5.49,4.2-10.55,10.46-12.41,17.21C258.84,279.46,259.84,279.68,260.05,279Z"/><path class="cls-2" d="M308.09,39.67c-.48-1.27-.57-2.57-1.17-3.85-1.73-3.72-1.41-6.91,1.2-10a19.45,19.45,0,0,0,3.33-4.45c1.68-3.73.16-11.89-3.62-14.17-9-5.45-20.26,7.13-24.07,14.7-14.4-12-22.74,11.48-27.36,22.82-3.54-4.58-9.61-10.65-14.72-5.05-5.38,5.9-5.44,16.88-5.53,24.32-.11,9.45.77,19.78,4.7,28.49,1.87,4.14,5.15,6.76,8.5,5.93.49.31,1,.61,1.48.88l-4,7.37a.68.68,0,0,0,1.18.67c1.55-2.36,3-4.77,4.47-7.2,7.5,3.42,15.56,2.6,23.39-1,8.53-3.88,17.34-9,23.68-16,4.28-4.75,5.88-10.74,6.78-16.91.64-4.33.48-8.66,3.16-12.35,1.87-2.57,3.37-4.88,1.87-8.07C310.41,43.7,308.92,41.85,308.09,39.67ZM305.93,56c-1.23,2.41-1,6-1.29,8.62-.74,5.92-2.11,11.59-5.87,16.35-4.57,5.81-11.55,9.83-17.89,13.37-8.74,4.87-18.24,7.88-27.26,3.86,1.28-2.22,2.53-4.45,3.77-6.7,6.55-.22,12.26-3.47,17.49-7.21a97.17,97.17,0,0,0,16-14.13.48.48,0,0,0-.59-.75c-5.57,3.35-10.1,8.31-15.2,12.31a44.74,44.74,0,0,1-17.06,8.56c3.27-6,6.46-12,9.91-17.82a196.39,196.39,0,0,1,10.85-16.56c4.16-5.66,9.1-10.23,13.94-15.24.63-.64-.21-1.76-1-1.25C281.56,46.15,274.18,58.7,268,68.9c-5.12,8.4-9.91,17-14.61,25.73a.43.43,0,0,0-.42.1,10.86,10.86,0,0,1-2.61,1.67l-.46-.3a1,1,0,0,0-1.59.78c-8.86.19-10.28-26-10.34-31.53-.08-7.4.23-16,3.82-22.7,4.15-7.73,10.9-.16,14.11,4.29.34.48,1.25.65,1.53,0,4-9.54,11.94-35.95,26-22.88a.93.93,0,0,0,1.45-.21C287.43,18,302.64,0,308.75,11.11c1.73,3.15,1.83,8.88-.41,11.63-1.63,2-3.3,3.56-4.19,6a9.81,9.81,0,0,0,.66,7c1.4,3.06,1.94,5.88,3.77,8.79C311.83,49.7,308.06,51.82,305.93,56Z"/><path class="cls-2" d="M255.19,84.68a76.22,76.22,0,0,1-1.54-11.36c-.48-6.69.56-13.23.63-19.88a.55.55,0,0,0-1.07-.13c-1.83,5.8-1.75,12.32-1.54,18.34a67.92,67.92,0,0,0,.85,8.65c.27,1.64.59,3.26,1,4.88.23,1,1.68,3.22,0,1.61-.37-.35-1,.13-.71.56a6.6,6.6,0,0,0,1.87,2.18.72.72,0,0,0,1-.44C256.12,87.54,255.54,86.25,255.19,84.68Z"/><path class="cls-2" d="M274.11,40.86c-8,6.32-9.39,19-7.92,28.45.11.71,1.27.51,1.24-.19a56.53,56.53,0,0,1,1.05-14.74c1.09-4.87,3.69-8.72,6.36-12.8C275.13,41.15,274.53,40.52,274.11,40.86Z"/><path class="cls-2" d="M292.2,59.53c-6.32,4.82-12,9.3-19.6,11.91a.61.61,0,0,0,.34,1.18c7.39-2.14,15-6.2,19.8-12.4C293,59.86,292.63,59.2,292.2,59.53Z"/><path class="cls-2" d="M338.34,103.2c.38-1.31,1.08-2.4,1.36-3.79.83-4,3-6.39,6.94-7.32A19.53,19.53,0,0,0,352,90.52c3.58-2,7.23-9.45,5.56-13.54-4-9.75-20.52-6.37-28.09-2.57-4.4-18.22-25.1-4.35-35.57,2-.11-5.78-1.36-14.28-8.8-12.84-7.84,1.53-14.44,10.3-18.95,16.22-5.73,7.52-11.18,16.33-13.23,25.67-1,4.43.09,8.49,3.28,9.83.21.54.43,1.07.67,1.59l-7.59,3.54a.68.68,0,0,0,.54,1.24c2.66-1,5.28-2,7.89-3.11,4,7.22,10.94,11.38,19.34,13.19,9.16,2,19.28,3.14,28.57,1.27,6.26-1.25,11.12-5.11,15.53-9.52,3.09-3.1,5.55-6.67,9.9-8,3-.94,5.62-1.9,6.32-5.36C337.8,107.81,337.7,105.44,338.34,103.2ZM326.86,115c-2.43,1.2-4.35,4.25-6.18,6.15-4.13,4.31-8.61,8-14.47,9.62-7.13,1.93-15.12,1-22.32.05-9.93-1.3-19.34-4.56-24.19-13.17q3.53-1.53,7-3.12c5.4,3.73,11.92,4.53,18.35,4.65a97.43,97.43,0,0,0,21.29-1.78.48.48,0,0,0,0-1c-6.47-.64-13.06.64-19.54.81A44.83,44.83,0,0,1,268,114c6.19-2.84,12.34-5.77,18.58-8.39a197.89,197.89,0,0,1,18.6-6.81c6.71-2.06,13.4-2.78,20.28-3.91a.8.8,0,0,0-.05-1.59c-12.21-.71-25.62,5-36.7,9.44-9.13,3.68-18.13,7.77-27.08,11.93a.44.44,0,0,0-.4-.18,10.5,10.5,0,0,1-3.08-.21c-.07-.18-.14-.34-.2-.52a1,1,0,0,0-1.74-.32c-7.22-5.13,7.25-27,10.52-31.47,4.36-6,9.75-12.72,16.61-15.94,7.95-3.72,8.84,6.38,8.76,11.86,0,.59.62,1.28,1.25.91,8.93-5.25,31-21.73,34.54-2.83a.92.92,0,0,0,1.28.69c5.53-3.15,28.52-8.56,26.76,4-.5,3.57-3.84,8.23-7.27,9.09-2.5.63-4.77.89-7,2.33a9.81,9.81,0,0,0-3.63,6c-.71,3.3-2,5.89-2.22,9.31C335.36,113.49,331.07,112.93,326.86,115Z"/><path class="cls-2" d="M269,107.75a77.31,77.31,0,0,1,5.55-10c3.6-5.65,8.34-10.27,12.36-15.57.39-.51-.29-1.09-.77-.75-4.93,3.57-8.76,8.85-12.18,13.8a66.24,66.24,0,0,0-4.48,7.45c-.77,1.48-1.48,3-2.14,4.49-.42.94-.58,3.59-1,1.29-.08-.5-.9-.51-.9,0a6.67,6.67,0,0,0,.2,2.86.72.72,0,0,0,1.1.27C268.07,110.6,268.38,109.22,269,107.75Z"/><path class="cls-2" d="M310.36,83.87c-10.2.3-18.89,9.69-23.33,18.11-.34.64.71,1.17,1.11.59a56.69,56.69,0,0,1,9.64-11.21c3.79-3.25,8.16-4.78,12.75-6.47C311,84.72,310.9,83.86,310.36,83.87Z"/><path class="cls-2" d="M313.74,109.66c-7.94.09-15.15.32-22.83-2.14a.61.61,0,0,0-.43,1.14c7.2,2.7,15.76,4,23.28,1.87C314.2,110.41,314.28,109.65,313.74,109.66Z"/><path class="cls-2" d="M52.53,319c.36,1.31.32,2.61.8,3.95,1.36,3.86.74,7-2.15,9.85a19.47,19.47,0,0,0-3.74,4.11c-2,3.55-1.28,11.82,2.26,14.45,8.46,6.28,20.85-5.17,25.36-12.35,13.2,13.31,23.73-9.27,29.4-20.11,3.09,4.88,8.56,11.51,14.17,6.42,5.92-5.37,7-16.29,7.82-23.69,1-9.4,1.11-19.76-2-28.81-1.46-4.29-4.48-7.22-7.9-6.71-.46-.36-.92-.7-1.39-1l4.66-7a.68.68,0,0,0-1.11-.79c-1.77,2.2-3.47,4.46-5.13,6.75-7.15-4.11-15.25-4.07-23.38-1.27-8.86,3.05-18.11,7.3-25.1,13.71-4.71,4.31-6.86,10.13-8.35,16.18-1,4.26-1.3,8.58-4.32,12-2.1,2.38-3.82,4.54-2.63,7.86C50.6,314.72,51.91,316.7,52.53,319Zm3.7-16.06c1.45-2.28,1.52-5.88,2.1-8.46,1.3-5.82,3.2-11.33,7.39-15.72,5.11-5.34,12.43-8.68,19.08-11.6,9.16-4,18.91-6.12,27.51-1.26-1.49,2.08-3,4.19-4.39,6.31-6.55-.4-12.54,2.29-18.1,5.52a96.19,96.19,0,0,0-17.29,12.54.48.48,0,0,0,.51.8c5.87-2.8,10.85-7.31,16.3-10.81a44.93,44.93,0,0,1,17.79-6.9c-3.82,5.63-7.56,11.32-11.55,16.8A197.44,197.44,0,0,1,83.2,305.56c-4.67,5.25-10,9.32-15.32,13.85a.81.81,0,0,0,.87,1.34c10.8-5.73,19.34-17.52,26.5-27.09,5.9-7.88,11.48-16,17-24.22a.48.48,0,0,0,.44-.06,10.42,10.42,0,0,1,2.75-1.41l.43.34a1,1,0,0,0,1.66-.63c8.84.65,7.77,26.83,7.3,32.37-.63,7.37-1.76,15.93-6,22.23-4.87,7.31-10.87-.87-13.64-5.61-.29-.51-1.18-.77-1.53-.12-4.92,9.11-15.29,34.65-28.08,20.31a.93.93,0,0,0-1.46.06c-3.1,5.56-20,22.09-25,10.41-1.42-3.31-1-9,1.51-11.55,1.81-1.82,3.62-3.23,4.74-5.59a9.79,9.79,0,0,0,0-7c-1.1-3.19-1.38-6-2.92-9.11C49.75,308.61,53.71,306.86,56.23,302.89Z"/><path class="cls-2" d="M109.46,279.16a77,77,0,0,1,.46,11.46c-.16,6.71-1.82,13.11-2.51,19.73a.54.54,0,0,0,1,.23c2.38-5.6,2.92-12.09,3.28-18.1a66.46,66.46,0,0,0,0-8.7c-.11-1.66-.27-3.3-.49-4.95-.13-1-1.37-3.37.16-1.6.34.38,1,0,.77-.49a6.73,6.73,0,0,0-1.66-2.34.72.72,0,0,0-1.08.33C108.81,276.23,109.26,277.57,109.46,279.16Z"/><path class="cls-2" d="M86.47,321c8.58-5.53,11.15-18.07,10.59-27.56,0-.73-1.22-.64-1.26.06a56.34,56.34,0,0,1-2.45,14.58c-1.55,4.75-4.5,8.32-7.55,12.14C85.48,320.61,86,321.29,86.47,321Z"/><path class="cls-2" d="M70.23,300.69c6.75-4.2,12.79-8.13,20.64-10a.61.61,0,0,0-.22-1.2c-7.57,1.42-15.56,4.74-20.89,10.46C69.45,300.28,69.77,301,70.23,300.69Z"/><path class="cls-2" d="M28.44,252.84c-.49,1.26-1.3,2.29-1.71,3.64-1.21,3.92-3.59,6.07-7.6,6.62a19.67,19.67,0,0,0-5.45,1.07c-3.75,1.64-8.09,8.72-6.82,12.95,3.05,10.08,19.82,8.29,27.72,5.22,2.65,18.56,24.57,6.72,35.6,1.4-.44,5.77,0,14.35,7.54,13.61,8-.77,15.36-8.88,20.41-14.34,6.41-6.94,12.68-15.2,15.6-24.3,1.39-4.32.71-8.46-2.33-10.1-.16-.56-.33-1.11-.52-1.64l7.9-2.81a.68.68,0,0,0-.43-1.29c-2.73.71-5.44,1.51-8.14,2.36-3.28-7.57-9.81-12.37-18-15-8.93-2.84-18.89-4.94-28.31-4-6.36.65-11.56,4-16.37,8-3.37,2.79-6.15,6.12-10.62,7.05-3.1.66-5.77,1.36-6.8,4.74C29.42,248.3,29.29,250.66,28.44,252.84ZM41,242.16c2.52-1,4.73-3.82,6.73-5.54,4.52-3.89,9.33-7.18,15.31-8.2,7.29-1.24,15.16.45,22.24,2.07,9.75,2.24,18.81,6.38,22.82,15.41-2.44.79-4.86,1.6-7.29,2.44-5-4.22-11.43-5.64-17.82-6.37a97.18,97.18,0,0,0-21.36-.25.48.48,0,0,0-.06.95c6.38,1.25,13.06.6,19.53,1.05a44.75,44.75,0,0,1,18.39,5.08c-6.42,2.24-12.82,4.56-19.29,6.58a197.41,197.41,0,0,1-19.15,5c-6.89,1.41-13.61,1.5-20.56,2a.81.81,0,0,0-.11,1.6c12.09,1.85,26-2.52,37.43-5.92,9.44-2.8,18.78-6,28.09-9.31a.41.41,0,0,0,.38.21,11.06,11.06,0,0,1,3,.51l.15.54a1,1,0,0,0,1.7.48c6.71,5.79-9.78,26.17-13.46,30.33-4.9,5.54-10.91,11.73-18,14.29-8.27,3-8.2-7.19-7.6-12.64.06-.59-.49-1.33-1.16-1C61.53,285.81,38,300.12,36.27,281a.92.92,0,0,0-1.21-.81c-5.81,2.61-29.2,5.81-26.25-6.56.83-3.5,4.6-7.83,8.1-8.36,2.54-.39,4.83-.43,7.14-1.66A9.8,9.8,0,0,0,28.24,258c1-3.22,2.5-5.67,3.09-9C32.39,242.88,36.61,243.84,41,242.16Z"/><path class="cls-2" d="M97.87,254.88a76.47,76.47,0,0,1-6.47,9.47c-4.13,5.29-9.28,9.44-13.79,14.33-.43.47.19,1.12.7.82,5.25-3.08,9.56-8,13.44-12.58a67.71,67.71,0,0,0,5.16-7c.9-1.4,1.75-2.81,2.56-4.27.5-.9.91-3.52,1.09-1.19,0,.51.85.59.9.06a6.44,6.44,0,0,0,.07-2.86.72.72,0,0,0-1.07-.38C99.1,252.14,98.66,253.48,97.87,254.88Z"/><path class="cls-2" d="M54.46,274.73c10.18.68,19.73-7.85,24.94-15.8.4-.61-.59-1.24-1-.7a56.57,56.57,0,0,1-10.67,10.24c-4.07,2.88-8.57,4-13.3,5.23C53.9,273.83,53.92,274.7,54.46,274.73Z"/><path class="cls-2" d="M53.55,248.75c7.91.65,15.11,1.11,22.52,4.29a.61.61,0,0,0,.54-1.1c-6.92-3.37-15.32-5.47-23-4.07C53.16,248,53,248.7,53.55,248.75Z"/><path class="cls-3" d="M82.06,53.52a3.23,3.23,0,0,0-.7.58.27.27,0,0,0,.32.43,3.84,3.84,0,0,0,.76-.5C82.66,53.8,82.35,53.38,82.06,53.52Z"/><path class="cls-3" d="M128.7,103.17C117.59,102,108,97.29,98.36,91.8c-9.32-5.3-20.31-11.63-27.45-20,7.78-1.1,16.12-.45,22.78-5.17a.33.33,0,0,0-.32-.58c-8,2.9-16.43,2.27-24.71,3.81a1.15,1.15,0,0,0-.8,1.81C75.21,81.25,87.15,88,97.43,94a125.17,125.17,0,0,0,18.91,9.13c3.47,1.3,8.9,3.52,12.56,1.89A1,1,0,0,0,128.7,103.17Z"/><path class="cls-3" d="M118.33,13.86c-6.59-1.34-10.56,1.6-12.49,6.1-6.63.37-11.65,4-16.61,8.61a20.13,20.13,0,0,0-4.24,6C71.52,24,53.36,13.6,41,30.22a5.67,5.67,0,0,0-.68.84c-.2.3.15.74.46.48a3.92,3.92,0,0,1,.32-.25.48.48,0,0,0,.47-.08l.84-.65c2.33-.87,5.08,0,7.28,1.05a14.35,14.35,0,0,1,4,3.06A15.15,15.15,0,0,1,55,36.5C49.67,37,45.12,35,40.7,32.09c-.47-.3-1,.35-.54.7,4.4,3.26,9.59,5.94,15.23,5a.64.64,0,0,0,.44-.29,2.16,2.16,0,0,0,.33.27.69.69,0,0,0,.36.09c0,.1,0,.21.08.31.13.46.9.27.82-.2-.85-4.89.43-7.56,5.48-5.94,4.17,1.33,8,3.91,11.6,6.31,2,1.35,4,2.78,6,4.24-7.94.41-12.77,7.8-14.07,15.28-8.75-4.8-17-2.06-23.76,3.7C25.94,52.17,13.52,87.39,10.77,97.93,7,112.52,5.41,144.32,28.59,138.42c-1.18,19.21,25.54,16.67,35.5,5.41a24,24,0,0,0,4.9-.33c15.49-2.95,23.45-23.91,25.66-37.36a1.09,1.09,0,0,0-.22-.89,110.72,110.72,0,0,0,26.85,12.38c5.66,1.65,16.71,4.19,19.84-3a1,1,0,0,0-.73-1.34c5.12-1.87,9.86-6.32,13.78-9.72,4.23-3.67,7.41-7.89,8.46-13.47,2.47-13.12-7.22-27.93-13.71-38.56C141.26,39.05,135.07,17.27,118.33,13.86ZM82.07,44.62a.84.84,0,0,0,.7-.37l1.85,1.41c1.12.88,3.17,3.29,4.79,2.73a.76.76,0,0,0,.5-.8c-.38-2.16-4.65-4.22-6.24-5.4a135.85,135.85,0,0,0-14.3-9.44c-3.21-1.79-7.38-4-11.16-2.89-1.93.58-2.43,2.26-2.37,4.07a19.47,19.47,0,0,0-6-4.32,10.42,10.42,0,0,0-4.57-1.1c7.4-5,14.42-6.33,23.61-2,8.57,4,15.42,10.86,22.81,16.55a1.1,1.1,0,0,0,1.37-1.73c-1.71-1.47-3.6-3.09-5.61-4.74l.63-.62c.51-.5,0-1.25-.56-1.37q.28-.47.57-.9A16.51,16.51,0,0,1,90.8,30.1c4.47-3.93,8.63-6.78,14.18-7.54a24.48,24.48,0,0,0,.28,11.87,5.47,5.47,0,0,0-1.55-1.09,6,6,0,0,0-5.38.47c-2,1.16-4.52,4-4.1,6.45.1.57.85,1.07,1.36.6,1.28-1.19,1.64-3,2.93-4.23a4.41,4.41,0,0,1,3.73-1.27c4,.64.68,5.61-.7,7a1.14,1.14,0,0,0,.72,1.82c1.84.33,3.8,1.1,2.26,3.09-1.14,1.47-3.35,2.12-5.09,2.37a.73.73,0,0,0-.67.87.39.39,0,0,0-.36.34c-.51,4.6-3.34,6.06-7.35,3.36a1.08,1.08,0,0,0-1.62.41,16,16,0,0,1-9.64,7.88,22.21,22.21,0,0,0,3-4,6.6,6.6,0,0,0,1.48-.31.63.63,0,0,0,.16-1.07,4.75,4.75,0,0,0-.67-.36A55.71,55.71,0,0,0,87,48.67c.18-.56-.62-.93-.85-.37a60.55,60.55,0,0,1-4.14,8.05,28,28,0,0,0-6.59.17,20.19,20.19,0,0,0-7.48,2C70.05,51.42,73.63,44.67,82.07,44.62Zm10.2,61.16c-2,11.41-6.89,23.11-15.7,30.93a19.68,19.68,0,0,1-12.74,4.94,1.37,1.37,0,0,0-1.29,0c-5.66-.06-12.76-2.19-10.71-8.59,13.82-.45,27.35-26.17,28.25-37a1.31,1.31,0,0,0-2.59-.39c-2.13,12.71-17.31,43.79-33.64,31.81a1,1,0,0,0-1.24,1.57A13,13,0,0,0,50,133c-3.06,6.48,3.64,9.62,10.42,10.55C50.68,151.67,30.63,154.4,30,138l.25-.07c1-.31.63-2-.36-1.82a.56.56,0,0,0-1.05.18h0c-21.63,4.2-19.18-22.84-15.76-37,2.09-8.64,13.37-42.42,27.61-36A60.11,60.11,0,0,0,27.91,82.77c-3.55,8.66-5.75,18.61-4.44,28,.85,6,4.66,13.15,11.66,12.83.87,0,.74-1.2,0-1.4-16.25-4.58-9.54-28.59-5-39.67A52.09,52.09,0,0,1,42.2,64.19c.18.11.35.2.52.32,1.31.95,2.88-1,1.56-2l-.08-.06c.16-.13.3-.27.47-.4,6.68-5.21,13.75-5.22,20.89-2-.14.11-.28.2-.41.32a.58.58,0,0,0-.22.45c-16.16,9.94,13.95,33.78,21.74,39.28,2.33,1.64,4.73,3.23,7.18,4.76A1.18,1.18,0,0,0,92.27,105.78ZM150,58.22c5.48,9.62,12.17,21.39,10,32.86-1.94,10.45-14.78,15.51-21.78,22a.47.47,0,0,0,.44.81c.26-.06.51-.14.77-.22l0,0c-4.55,5.66-14.11,2.69-19.82.88C109.07,111.2,99.16,105.66,90,99.61c-8.2-5.38-40.86-28.69-22.28-38.54A1.09,1.09,0,0,0,69.11,60a27.32,27.32,0,0,1,6.55-1.55,29.46,29.46,0,0,1,4.83.18c-1.65,2.06-3.57,3.8-5.18,5.92a.52.52,0,0,0,.59.79,9.53,9.53,0,0,0,1.3-.69c5.86.08,10.5-3.34,13.55-8.11,2.23,1.3,5.31,2.41,7.53.73s2.61-3.88,1.26-6h.06c2.93,0,6.29-1.34,7.43-4.28.85-2.21-.77-3.66-2.61-4.43,1.48-2,2.48-4.52,1.78-6.58.85.3,2-.28,1.82-1.34-.82-3.88-1.65-8.37-.53-12.24h.82c1.31,0,1.39-2.11.18-2.34a10.25,10.25,0,0,1,1.75-2.26c5.93-5.7,15.68,2.23,19.7,6.5C138.73,33.61,143.68,47.12,150,58.22Z"/><path class="cls-3" d="M112,45c-2.89,3-4.66,7.41-7.21,10.79s-6.53,8.74-11.18,8.95c-.55,0-.55.88,0,1,4.08.58,7.36-3.1,9.89-5.79,3.29-3.49,8.68-9.58,9.23-14.59A.4.4,0,0,0,112,45Z"/><path class="cls-3" d="M126.56,42.07c-2.41-3.14-6.4-9.26-10.85-9.62s-2.83,8.67-2.56,10.65a.71.71,0,0,0,1.41-.14c-.31-2.55-1.12-6.18.3-8.55,1-1.63,4.17,1.57,4.86,2.21,3.84,3.56,6.8,8.09,9.71,12.39,8.85,13.05,17.41,27.38,20.34,43,.25,1.34,2.33,1.16,2.13-.23-1.8-12.65-8.42-23.12-14.79-33.91A155.49,155.49,0,0,0,126.56,42.07Z"/><path class="cls-3" d="M132.82,90.31c-1.73-1.18-3.68-1.91-5.38-3.21-2.11-1.6-4-3.42-6.16-5-3-2.28-6.66-4-9.94-1.36-5.76,4.65,6.49,13.84,9.87,15.59.61.32,1-.65.42-1a27.1,27.1,0,0,1-7.54-6.65,13.06,13.06,0,0,1-2.18-3.84c-1-2.78,2.09-4.06,4.34-3.34,3.47,1.11,6.41,4.56,9.11,6.86,1.76,1.5,4.73,4.2,7.27,3.2A.73.73,0,0,0,132.82,90.31Z"/><path class="cls-3" d="M133.73,77.71c-5.72.08.05,11.55,1.83,13.18.69.62,1.81-.45,1.18-1.14a14.69,14.69,0,0,1-2.83-5.21,12.39,12.39,0,0,1-.64-3.18c-.18-2.37,1.73-1.67,3.1-.81,2.15,1.36,3.11,5.08,3.93,7.32.63,1.73,1.08,4.93,2.93,5.77a.51.51,0,0,0,.68-.27c.42-1.34-.35-2.65-.78-3.93a56.11,56.11,0,0,0-2.76-6.88C139.1,80,136.78,77.67,133.73,77.71Z"/><path class="cls-3" d="M102.62,71.4a1,1,0,0,0-1.13-.33.82.82,0,0,0-.55.52,1,1,0,0,0,.11,1,7.61,7.61,0,0,1,1.94,3.3c.09.57-.13.87-.75,1a3.73,3.73,0,0,1-2.53-1,8.16,8.16,0,0,1-2.53-3.73c-.18-.51-.92-.21-.77.29a12.23,12.23,0,0,0,.49,1.3s-.05,0-.07,0a10.21,10.21,0,0,0-1.7,1.3,16.58,16.58,0,0,1-1.36,1.29A2.25,2.25,0,0,1,92,77c-1-.21-.77-3-.55-3.75.06-.21-.25-.26-.33-.1a6,6,0,0,0-1,3.16,2.66,2.66,0,0,0,1.35,2.26,3.29,3.29,0,0,0,3.07-.4,8.21,8.21,0,0,0,1.74-1.37,4.78,4.78,0,0,0,1.2-2.07c1.11,1.9,2.86,3.49,5.14,3.41a2.24,2.24,0,0,0,2.1-2C104.91,74.42,103.7,72.59,102.62,71.4Z"/><path class="cls-3" d="M109,64.15a7.32,7.32,0,0,0-3.58,1.15.52.52,0,0,0-.14.89c.84.74,2.08.36,3,0,.38-.13.51-.17.65,0a3.26,3.26,0,0,1,.65,1.74,15.82,15.82,0,0,1-4.28,1.41c-.81.2-.45,1.46.33,1.38a12,12,0,0,0,5.53-1.59.92.92,0,0,0,.37-.85C111.3,66.77,110.87,64.31,109,64.15Z"/><path class="cls-3" d="M119.06,54.59c-1.06-1-2.38-1.93-3.86-1.26a3.72,3.72,0,0,0-.58.35l-.06,0c-.58-.59-2-.21-2.69,0a5.54,5.54,0,0,0-3.21,2.7.88.88,0,0,0,1.11,1.16c.85-.23,1.47-1.09,2.18-1.57.23-.16,1.12-.63,1.48-.49A7.81,7.81,0,0,0,113,57.9c0,.37.5.73.75.33s.6-1,.9-1.51c.15.35,0,.66-.28,1-.56.77-1.24,1.45-1.81,2.22a.64.64,0,0,0,1,.79,26.8,26.8,0,0,0,2.57-2.54,2.52,2.52,0,0,0-.09-2.86,1.25,1.25,0,0,0-.16-.24c.7-.44,1.78.28,2.32.66A.73.73,0,0,0,119.06,54.59Z"/><path class="cls-3" d="M116.08,66.81a.6.6,0,0,0-.48.79c.28,1,1.53,1.5,2.23,2.17a2.27,2.27,0,0,1,.49.66s.08.23.08.21c-.19.2-1,.19-1.42.15a14.41,14.41,0,0,1-3.42-.92.75.75,0,0,0-.59,1.37,11.19,11.19,0,0,0,4.32,1.32,2.89,2.89,0,0,0,2.58-.91,2.23,2.23,0,0,0-.28-2.58C118.93,68.11,117.34,66.54,116.08,66.81Z"/><path class="cls-3" d="M119.3,57.51c-1.34.89-3.41,2-4,3.57a.67.67,0,0,0,.68.92c1.31-.11,2.66-1.17,3.79-2.1a2.32,2.32,0,0,1,.28,2.56c-.68,1.08-1.68,1.94-2.46,2.95-.64.82.56,1.73,1.25,1,1.08-1.17,2.52-2.12,3.19-3.6.8-1.76-.29-3.6-1.22-5A1.06,1.06,0,0,0,119.3,57.51Z"/><path class="cls-3" d="M121.56,71.25a.58.58,0,0,0-.64.47,1.22,1.22,0,0,0,0,.63c-.12-.47,0,.42,0,.47.16.41.38.78.52,1.2a2.23,2.23,0,0,1,0,1.58c.07-.14,0,0-.06,0s-.23,0-.11,0a1,1,0,0,1-.42-.12,8.33,8.33,0,0,1-2.67-2.38.75.75,0,0,0-1.2.89c1.08,1.68,3.74,5,5.9,2.79C124.22,75.53,123.56,71.49,121.56,71.25Z"/><path class="cls-3" d="M126.69,62.34a.69.69,0,0,0-.88.35c-.55.92.21,2,.68,2.78a7.49,7.49,0,0,1,1.06,2.26,17.43,17.43,0,0,1-2.33-.41.73.73,0,0,0-.71,1.21.65.65,0,0,0,.53.23l0,0c.31.18.63.33,1,.48a5.09,5.09,0,0,0,2.64.4,1,1,0,0,0,.87-.83,5.09,5.09,0,0,0-.63-3.31c-.29-.52-.62-1-.92-1.54S127.46,62.62,126.69,62.34Z"/><path class="cls-3" d="M109,73.89c-.81,2,.19,4.49-1.26,6.41-1.12,1.49-3-1.21-3.57-2a.64.64,0,0,0-1.11.61c.85,1.93,2.81,4.63,5.26,3.35s3.31-6.29,2.07-8.53A.81.81,0,0,0,109,73.89Z"/></svg>